<svg xmlns="http://www.w3.org/2000/svg" viewBox="0 0 640 480" role="img" aria-labelledby="title desc">
  <title id="title">Visual Hive dashboard preview</title>
  <desc id="desc">Contract cards, screenshot panels, and triage timeline inside a deterministic dashboard.</desc>
  <rect width="640" height="480" fill="#eef3f8"/>
  <rect x="42" y="40" width="556" height="400" rx="18" fill="#ffffff" stroke="#cbd5e1" stroke-width="2"/>
  <rect x="74" y="76" width="230" height="28" rx="6" fill="#172033"/>
  <rect x="74" y="122" width="106" height="76" rx="10" fill="#e8f1ff" stroke="#b9cdf8"/>
  <rect x="196" y="122" width="106" height="76" rx="10" fill="#dcfce7" stroke="#9ee4b2"/>
  <rect x="318" y="122" width="106" height="76" rx="10" fill="#fef3c7" stroke="#f6d477"/>
  <rect x="440" y="122" width="106" height="76" rx="10" fill="#fee2e2" stroke="#f6a6a6"/>
  <rect x="74" y="232" width="248" height="152" rx="12" fill="#f8fafc" stroke="#d8dee8"/>
  <rect x="100" y="258" width="80" height="88" rx="5" fill="#155eef"/>
  <rect x="198" y="286" width="80" height="60" rx="5" fill="#15803d"/>
  <rect x="348" y="232" width="198" height="152" rx="12" fill="#f8fafc" stroke="#d8dee8"/>
  <circle cx="378" cy="270" r="8" fill="#15803d"/>
  <rect x="394" y="264" width="116" height="12" rx="6" fill="#94a3b8"/>
  <circle cx="378" cy="310" r="8" fill="#b45309"/>
  <rect x="394" y="304" width="96" height="12" rx="6" fill="#94a3b8"/>
  <circle cx="378" cy="350" r="8" fill="#155eef"/>
  <rect x="394" y="344" width="130" height="12" rx="6" fill="#94a3b8"/>
</svg>
